<svg width="24" height="24" viewBox="0 0 24 24" fill="none" xmlns="http://www.w3.org/2000/svg">
<g id="Plus - Iconly Pro">
<path id="Vector" fill-rule="evenodd" clip-rule="evenodd" d="M12.0369 8.71265C12.4511 8.71265 12.7869 9.04843 12.7869 9.46265V16.611C12.7869 17.0253 12.4511 17.361 12.0369 17.361C11.6227 17.361 11.2869 17.0253 11.2869 16.611V9.46265C11.2869 9.04843 11.6227 8.71265 12.0369 8.71265Z" fill="black"/>
<path id="Vector_2" fill-rule="evenodd" clip-rule="evenodd" d="M7.70886 13.0367C7.70886 12.6225 8.04465 12.2867 8.45886 12.2867H15.6147C16.0289 12.2867 16.3647 12.6225 16.3647 13.0367C16.3647 13.4509 16.0289 13.7867 15.6147 13.7867H8.45886C8.04465 13.7867 7.70886 13.4509 7.70886 13.0367Z" fill="black"/>
<path id="Vector_3" fill-rule="evenodd" clip-rule="evenodd" d="M4.96051 5.96051C3.66147 7.25955 3.05005 9.42744 3.05005 13.0369C3.05005 16.6464 3.66147 18.8143 4.96051 20.1133C6.25956 21.4124 8.42744 22.0238 12.0369 22.0238C15.6463 22.0238 17.8142 21.4124 19.1133 20.1133C20.4123 18.8143 21.0237 16.6464 21.0237 13.0369C21.0237 9.42744 20.4123 7.25955 19.1133 5.96051C17.8142 4.66146 15.6463 4.05005 12.0369 4.05005C8.42744 4.05005 6.25956 4.66146 4.96051 5.96051ZM3.89985 4.89985C5.6437 3.156 8.34424 2.55005 12.0369 2.55005C15.7295 2.55005 18.4301 3.156 20.1739 4.89985C21.9178 6.6437 22.5237 9.34424 22.5237 13.0369C22.5237 16.7296 21.9178 19.4301 20.1739 21.174C18.4301 22.9178 15.7295 23.5238 12.0369 23.5238C8.34424 23.5238 5.6437 22.9178 3.89985 21.174C2.156 19.4301 1.55005 16.7296 1.55005 13.0369C1.55005 9.34424 2.156 6.6437 3.89985 4.89985Z" fill="black"/>
</g>
</svg>
